<!DOCTYPE svg PUBLIC "-//W3C//DTD SVG 1.1//EN" "http://www.w3.org/Graphics/SVG/1.1/DTD/svg11.dtd">
<!-- Uploaded to: SVG Repo, www.svgrepo.com, Transformed by: SVG Repo Mixer Tools -->
<svg width="800px" height="800px" viewBox="-0.5 0 25 25" fill="none" xmlns="http://www.w3.org/2000/svg" stroke="white" transform="matrix(-1, 0, 0, 1, 0, 0)">
<g id="SVGRepo_bgCarrier" stroke-whiteidth="0"/>
<g id="SVGRepo_tracerCarrier" stroke-linecap="round" stroke-linejoin="round" stroke="#CCCCCC" stroke-width="0.1"/>
<g id="SVGRepo_iconCarrier"> <path d="M20.0195 21.3199C22.5695 20.4399 23.0195 15.7199 23.0195 12.4099C23.0195 9.09992 22.5895 4.41001 20.0195 3.51001C17.3095 2.58001 9.01953 8.65991 9.01953 12.4099C9.01953 16.1599 17.3095 22.2499 20.0195 21.3199Z" stroke="white" stroke-whiteidth="1.5" stroke-linecap="round" stroke-linejoin="round"/> <path d="M1 18.92C1 20.3008 2.11929 21.42 3.5 21.42C4.88071 21.42 6 20.3008 6 18.92L6 5.92004C6 4.53933 4.88071 3.42004 3.5 3.42004C2.11929 3.42004 1 4.53933 1 5.92004L1 18.92Z" stroke="white" stroke-whiteidth="1.5" stroke-linecap="round" stroke-linejoin="round"/> </g>
</svg>